<svg xmlns="http://www.w3.org/2000/svg" viewBox="0 0 64 64" width="64" height="64" role="img" aria-label="Support icon">
  <defs>
    <linearGradient id="gold" x1="0%" y1="0%" x2="100%" y2="100%">
      <stop offset="0%" stop-color="#f5d27a"/>
      <stop offset="50%" stop-color="#d4af57"/>
      <stop offset="100%" stop-color="#9c7a35"/>
    </linearGradient>
    <linearGradient id="bg" x1="0%" y1="0%" x2="0%" y2="100%">
      <stop offset="0%" stop-color="#1b2733"/>
      <stop offset="100%" stop-color="#111a24"/>
    </linearGradient>
    <filter id="shadow" x="-30%" y="-30%" width="160%" height="160%">
      <feDropShadow dx="0" dy="1.2" stdDeviation="1.3" flood-color="#000000" flood-opacity="0.5"/>
    </filter>
  </defs>

  <!-- Outer badge -->
  <circle cx="32" cy="32" r="28" fill="url(#bg)" stroke="url(#gold)" stroke-width="2.2" filter="url(#shadow)"/>
  <circle cx="32" cy="32" r="23.7" fill="none" stroke="#2d3b4b" stroke-width="1.1"/>
  <path d="M32 8 L35 14 L42 14 L37 18 L39 25 L32 21 L25 25 L27 18 L22 14 L29 14 Z" fill="#13202b" opacity="0.65"/>

  <!-- Decorative corners -->
  <path d="M20 15 Q32 10 44 15" fill="none" stroke="#2b3947" stroke-width="0.9"/>
  <path d="M20 49 Q32 54 44 49" fill="none" stroke="#2b3947" stroke-width="0.9"/>

  <!-- Icon -->
  
    <g fill="none" stroke-linecap="round" stroke-linejoin="round">
      <path d="M32 16 L44 21 V30 C44 39 38 45 32 48 C26 45 20 39 20 30 V21 Z" stroke="url(#gold)" stroke-width="2.1"/>
      <path d="M32 24 V37 M25.5 30.5 H38.5" stroke="url(#gold)" stroke-width="2"/>
      <path d="M24 19 Q32 15 40 19" stroke="#7a6130" stroke-width="1.2" opacity="0.7"/>
    </g>
    
</svg>
