<svg xmlns="http://www.w3.org/2000/svg" viewBox="0 0 64 64" width="64" height="64" role="img" aria-label="Top lane icon">
  <defs>
    <linearGradient id="gold" x1="0%" y1="0%" x2="100%" y2="100%">
      <stop offset="0%" stop-color="#f5d27a"/>
      <stop offset="50%" stop-color="#d4af57"/>
      <stop offset="100%" stop-color="#9c7a35"/>
    </linearGradient>
    <linearGradient id="bg" x1="0%" y1="0%" x2="0%" y2="100%">
      <stop offset="0%" stop-color="#1b2733"/>
      <stop offset="100%" stop-color="#111a24"/>
    </linearGradient>
    <filter id="shadow" x="-30%" y="-30%" width="160%" height="160%">
      <feDropShadow dx="0" dy="1.2" stdDeviation="1.3" flood-color="#000000" flood-opacity="0.5"/>
    </filter>
  </defs>

  <!-- Outer badge -->
  <circle cx="32" cy="32" r="28" fill="url(#bg)" stroke="url(#gold)" stroke-width="2.2" filter="url(#shadow)"/>
  <circle cx="32" cy="32" r="23.7" fill="none" stroke="#2d3b4b" stroke-width="1.1"/>
  <path d="M32 8 L35 14 L42 14 L37 18 L39 25 L32 21 L25 25 L27 18 L22 14 L29 14 Z" fill="#13202b" opacity="0.65"/>

  <!-- Decorative corners -->
  <path d="M20 15 Q32 10 44 15" fill="none" stroke="#2b3947" stroke-width="0.9"/>
  <path d="M20 49 Q32 54 44 49" fill="none" stroke="#2b3947" stroke-width="0.9"/>

  <!-- Icon -->
  
    <g fill="none" stroke="url(#gold)" stroke-width="2.1" stroke-linecap="round" stroke-linejoin="round">
      <path d="M24 41 L24 29 L28 25 L36 25 L40 29 L40 41" />
      <path d="M28 25 L28 21 L36 21 L36 25" />
      <path d="M22 43 L42 43" />
      <path d="M28 35 L36 35" />
      <path d="M32 21 L32 17" />
      <path d="M27 17 L32 13 L37 17" />
    </g>
    <path d="M24 29 L20 33 M40 29 L44 33" stroke="#7a6130" stroke-width="1.3" opacity="0.8" fill="none" stroke-linecap="round"/>
    
</svg>
